<?xml version="1.0" encoding="utf-8"?>
<!-- Generator: Adobe Illustrator 21.0.0, SVG Export Plug-In . SVG Version: 6.00 Build 0)  -->
<svg version="1.1" id="Capa_1" xmlns="http://www.w3.org/2000/svg" xmlns:xlink="http://www.w3.org/1999/xlink" x="0px" y="0px"
	 width="512px" height="512px" viewBox="0 0 512 512" style="enable-background:new 0 0 512 512;" xml:space="preserve">
<style type="text/css">
	.st0{fill:#FFFFFF;}
	.st1{font-family:'MyriadPro-Regular';}
	.st2{font-size:200px;}
</style>
<g>
	<g>
		<path class="st0" d="M440.4,2c-3-2.1-6.8-2.6-10.2-1.3l-55.5,20.8L319.2,0.7c-2.5-0.9-5.3-0.9-7.8,0l-55.5,20.8L200.5,0.7
			c-2.5-0.9-5.3-0.9-7.8,0l-55.4,20.8L81.8,0.7C78.4-0.6,74.6-0.1,71.6,2c-3,2.1-4.8,5.5-4.8,9.1v467.5c0,18.4,15,33.4,33.4,33.4
			h311.6c18.4,0,33.4-15,33.4-33.4V11.1C445.2,7.5,443.4,4.1,440.4,2z M423,423h-55.7c-6.2,0-11.1,5-11.1,11.1s5,11.1,11.1,11.1H423
			v33.4c0,6.1-5,11.1-11.1,11.1H100.2c-6.1,0-11.1-5-11.1-11.1v-33.4h211.5c6.2,0,11.1-5,11.1-11.1s-5-11.1-11.1-11.1H89V27.2
			l44.3,16.6c2.5,0.9,5.3,0.9,7.8,0L196.6,23L252,43.8c2.5,0.9,5.3,0.9,7.8,0L315.3,23l55.5,20.8c2.5,0.9,5.3,0.9,7.8,0L423,27.2
			V423z"/>
	</g>
</g>
<text transform="matrix(1 0 0 1 198.0017 314.7007)" class="st0 st1 st2">C</text>
</svg>
